<svg xmlns="http://www.w3.org/2000/svg">
	<!-- 底部导航 -->
	<symbol id="footerIcion1">
		<g>
			<g>
				<path fill="#FFFFFF" d="M18.7,17.9H1.9c0,0-0.1,0-0.1,0c0,0-1-1-1.5-2.7c-0.5-2-0.7-6.5,2.2-9.4c-2-0.8-1-5.4-1-5.6
					C1.5,0.1,1.6,0,1.6,0c0.1,0,0.1,0.1,0.2,0.2c0.1,1,2.6,2.2,5,3.1C7.8,3,9,2.9,10.3,2.9c1.3,0,2.4,0.1,3.5,0.4
					c2.4-0.9,4.9-2.2,5-3.1c0-0.1,0.1-0.1,0.2-0.2c0.1,0,0.2,0,0.2,0.1c0,0.2,1,4.8-1,5.6c2.8,3,2.6,7.4,2.2,9.4
					c-0.4,1.7-1.4,2.7-1.5,2.7C18.7,17.9,18.7,17.9,18.7,17.9z M1.9,17.6h16.7c0.2-0.2,1-1.1,1.3-2.5c0.5-2,0.6-6.5-2.3-9.4
					c-0.1-0.1-0.1-0.1,0-0.2c0-0.1,0.1-0.1,0.2-0.1l0,0c1.5-0.4,1.2-3.4,1-4.7c-0.8,1.1-3.4,2.3-5,2.9c0,0-0.1,0-0.1,0
					c-1-0.3-2.2-0.4-3.4-0.4C9,3.2,7.8,3.4,6.8,3.6c0,0-0.1,0-0.1,0C5.1,3,2.5,1.9,1.7,0.8C1.5,2,1.2,5,2.7,5.5l0,0
					c0.1,0,0.2,0,0.2,0.1c0,0.1,0,0.2,0,0.2C0,8.6,0.1,13.1,0.6,15.1C1,16.5,1.7,17.4,1.9,17.6z M14.4,15.1H6.1
					c-2.4,0-4.3-1.9-4.3-4.3s1.9-4.3,4.3-4.3c2,0,3.6,1.3,4.1,3.1c0.5-1.8,2.2-3.1,4.1-3.1c2.4,0,4.3,1.9,4.3,4.3S16.7,15.1,14.4,15.1
					z M6.1,6.9c-2.2,0-4,1.8-4,4c0,2.2,1.8,4,4,4h8.2c2.2,0,4-1.8,4-4c0-2.2-1.8-4-4-4c-2.1,0-3.8,1.6-3.9,3.6c0,0.1,0,0.1-0.1,0.1
					c0,0-0.1,0-0.1,0c0,0,0,0,0,0c-0.1,0-0.1-0.1-0.1-0.1C9.9,8.4,8.2,6.9,6.1,6.9z"/>
			</g>
			<g>
				<path fill="#FFFFFF" d="M10.3,15.1L10.3,15.1c-0.1,0-0.1-0.1-0.2-0.1l-1.2-4.5c0-0.1,0-0.1,0-0.1c0,0,0.1-0.1,0.1-0.1h2.4
					c0.1,0,0.1,0,0.1,0.1c0,0,0,0.1,0,0.1L10.4,15C10.4,15.1,10.3,15.1,10.3,15.1z M9.3,10.7l1,3.7l1-3.7H9.3z"/>
			</g>
		</g>
		<g>
			<g>
				<path fill="#FFFFFF" d="M6.4,12.2H5.7v-0.7H4.8V11h0.9v-0.2l-0.1-0.2H4.8l0-0.5h0.6L4.8,8.8h0.8l0.5,1.5l0.5-1.5h0.8l-0.6,1.4h0.5
					v0.5H6.5l-0.1,0.2V11h0.9v0.5H6.4V12.2z"/>
			</g>
		</g>
		<g>
			<g>
				<path fill="#FFFFFF" d="M14.8,12.2H14v-0.7h-0.9V11H14v-0.2l-0.1-0.2h-0.8l0-0.5h0.6l-0.6-1.4h0.8l0.5,1.5L15,8.8h0.8l-0.6,1.4
					h0.5v0.5h-0.8l-0.1,0.2V11h0.9v0.5h-0.9V12.2z"/>
			</g>
		</g>
	</symbol>
	<symbol id="footerIcion2">
			<g>
		<g>
			<g>
				<path fill="#FFFFFF" d="M18.7,18.3H1.9c0,0-0.1,0-0.1,0c0,0-1-1-1.5-2.7c-0.5-2-0.7-6.5,2.2-9.4c-2-0.8-1-5.4-1-5.6
					c0-0.1,0.1-0.1,0.2-0.1c0.1,0,0.1,0.1,0.2,0.2c0.1,1,2.6,2.2,5,3.1c1-0.3,2.2-0.4,3.5-0.4c1.3,0,2.4,0.1,3.5,0.4
					c2.4-0.9,4.9-2.2,5-3.1c0-0.1,0.1-0.1,0.2-0.2c0.1,0,0.2,0,0.2,0.1c0,0.2,1,4.8-1,5.6c2.8,3,2.6,7.4,2.2,9.4
					c-0.4,1.7-1.4,2.7-1.5,2.7C18.7,18.3,18.7,18.3,18.7,18.3z M1.9,18h16.7c0.2-0.2,1-1.1,1.3-2.5c0.5-2,0.6-6.5-2.3-9.4
					c-0.1-0.1-0.1-0.1,0-0.2c0-0.1,0.1-0.1,0.2-0.1l0,0c1.5-0.4,1.2-3.4,1-4.7c-0.8,1.1-3.4,2.3-5,2.9c0,0-0.1,0-0.1,0
					c-1-0.3-2.2-0.4-3.4-0.4C9,3.6,7.8,3.7,6.8,4c0,0-0.1,0-0.1,0c-1.6-0.6-4.2-1.7-5-2.9c-0.2,1.3-0.5,4.3,1,4.7l0,0
					c0.1,0,0.2,0,0.2,0.1c0,0.1,0,0.2,0,0.2C0,9,0.1,13.5,0.6,15.4C1,16.9,1.7,17.7,1.9,18z M14.4,15.5H6.1c-2.4,0-4.3-1.9-4.3-4.3
					s1.9-4.3,4.3-4.3c2,0,3.6,1.3,4.1,3.1c0.5-1.8,2.2-3.1,4.1-3.1c2.4,0,4.3,1.9,4.3,4.3S16.7,15.5,14.4,15.5z M6.1,7.2
					c-2.2,0-4,1.8-4,4c0,2.2,1.8,4,4,4h8.2c2.2,0,4-1.8,4-4c0-2.2-1.8-4-4-4c-2.1,0-3.8,1.6-3.9,3.6c0,0.1,0,0.1-0.1,0.1
					c0,0-0.1,0-0.1,0c0,0,0,0,0,0c-0.1,0-0.1-0.1-0.1-0.1C9.9,8.8,8.2,7.2,6.1,7.2z"/>
			</g>
			<g>
				<path fill="#FFFFFF" d="M10.3,15.5L10.3,15.5c-0.1,0-0.1-0.1-0.2-0.1l-1.2-4.5c0-0.1,0-0.1,0-0.1c0,0,0.1-0.1,0.1-0.1h2.4
					c0.1,0,0.1,0,0.1,0.1c0,0,0,0.1,0,0.1l-1.2,4.5C10.4,15.4,10.3,15.5,10.3,15.5z M9.3,11l1,3.7l1-3.7H9.3z"/>
			</g>
		</g>
		<g>
			<path fill="#FFFFFF" d="M7.4,9.8C6.8,8.9,5.8,9.8,5.8,9.8s-1-0.9-1.6-0.1c-0.7,0.9,1.2,1.5,1.6,2.3C6.2,11.3,8.1,10.7,7.4,9.8z"/>
		</g>
		<g>
			<path fill="#FFFFFF" d="M16.3,9.8c-0.6-0.8-1.6,0.1-1.6,0.1s-1-0.9-1.6-0.1c-0.7,0.9,1.2,1.5,1.6,2.3C15.1,11.3,17,10.7,16.3,9.8z
				"/>
		</g>
	</g>
	</symbol>
	<symbol id="footerIcion3">
		<g>
	<g>
		<path fill="#FFFFFF" d="M9.1,9.4C9.1,9.4,9,9.4,9.1,9.4C9,9.4,8.8,9.3,8.7,9c0-0.1,0-0.1,0.1-0.2c0.1,0,0.1,0,0.2,0.1
			C8.9,9,9,9.1,9.1,9.2l2.5-0.6c0-0.1,0.1-0.2,0.1-0.3c0-0.4-0.2-1-0.6-1.3c-0.1,0-0.1-0.1-0.1-0.2c0,0,0-0.1,0.1-0.1
			c0.1-0.1,0-0.3,0-0.4c-0.1,0.1-0.3,0.3-0.6,0.5c-0.1,0-0.1,0-0.2,0c0-0.1,0-0.1,0-0.2c0.4-0.3,0.6-0.5,0.6-0.6
			c0-0.1,0-0.1,0.1-0.1c0.1,0,0.1,0,0.1,0.1c0,0.1,0.3,0.6,0.1,0.9c0.5,0.4,0.6,1.1,0.6,1.4c0,0.3-0.1,0.5-0.1,0.5c0,0,0,0-0.1,0.1
			L9.1,9.4C9.1,9.4,9.1,9.4,9.1,9.4z"/>
	</g>
	<g>
		<path fill="#FFFFFF" d="M8.4,16.4l-0.1-0.5l7-1.7c0.2,0,0.3-0.2,0.2-0.4l0.5-0.1c0.1,0.4-0.2,0.9-0.6,1L8.4,16.4z"/>
	</g>
	<g>
		<path fill="#FFFFFF" d="M5,5.4L4.4,3.2c-0.1-0.2,0-0.4,0.1-0.6s0.3-0.3,0.5-0.4l7-1.7c0.2,0,0.4,0,0.6,0.1
			c0.2,0.1,0.3,0.3,0.4,0.5l0.5,2.2l-0.5,0.1l-0.5-2.2c0-0.1-0.1-0.2-0.1-0.2c-0.1,0-0.2-0.1-0.2,0l-7,1.7C5.1,2.7,5,2.7,5,2.8
			c0,0.1-0.1,0.2,0,0.2l0.5,2.2L5,5.4z"/>
	</g>
	<g>
		<path fill="#FFFFFF" d="M11.5,14.7c-0.3,0-0.6-0.2-0.7-0.6c0-0.2,0-0.4,0.1-0.6s0.3-0.3,0.5-0.3c0.4-0.1,0.8,0.2,0.9,0.6
			c0,0.2,0,0.4-0.1,0.6c-0.1,0.2-0.3,0.3-0.5,0.3C11.7,14.7,11.6,14.7,11.5,14.7z M11.5,13.5c0,0-0.1,0-0.1,0
			c-0.1,0-0.2,0.1-0.3,0.2c-0.1,0.1-0.1,0.2-0.1,0.4c0.1,0.3,0.3,0.4,0.6,0.4c0.1,0,0.2-0.1,0.3-0.2c0.1-0.1,0.1-0.2,0.1-0.4
			C12,13.6,11.8,13.5,11.5,13.5z"/>
	</g>
	<g>
		<polygon fill="#FFFFFF" points="7.9,13.6 6.9,9.3 7.2,9.2 8.1,13.3 12.9,12.2 13,12.4 		"/>
	</g>
	<g>
		<polygon fill="#FFFFFF" points="6,5.2 5.5,3.2 5.6,3.2 12.2,1.7 12.6,3.6 12.4,3.7 12,2 5.8,3.4 6.2,5.1 		"/>
	</g>
	<g>
		<path fill="#FFFFFF" d="M16.4,15.7c-0.1,0-0.2-0.1-0.2-0.2c0-0.1,0.1-0.3,0.2-0.3c0.3-0.1,0.5-0.2,0.7-0.5
			c0.2-0.2,0.2-0.5,0.1-0.8c0-0.1,0.1-0.3,0.2-0.3c0.1,0,0.3,0.1,0.3,0.2c0.1,0.4,0,0.8-0.2,1.2C17.2,15.3,16.8,15.6,16.4,15.7
			C16.4,15.7,16.4,15.7,16.4,15.7z"/>
	</g>
	<g>
		<path fill="#FFFFFF" d="M16.7,16.6c-0.1,0-0.2-0.1-0.2-0.2c0-0.1,0.1-0.3,0.2-0.3c0.5-0.1,1-0.4,1.2-0.9c0.3-0.5,0.4-1,0.2-1.5
			c0-0.1,0.1-0.3,0.2-0.3c0.1,0,0.3,0.1,0.3,0.2c0.2,0.7,0,1.3-0.3,1.9C18,16.1,17.4,16.5,16.7,16.6C16.8,16.6,16.7,16.6,16.7,16.6z
			"/>
	</g>
	<g>
		<path fill="#FFFFFF" d="M3.3,3.4C3.1,3.4,3,3.3,3,3.2C2.8,2.4,3.3,1.5,4.2,1.3c0.1,0,0.3,0.1,0.3,0.2S4.4,1.8,4.3,1.8
			C3.7,2,3.4,2.5,3.5,3.1C3.5,3.2,3.4,3.4,3.3,3.4C3.3,3.4,3.3,3.4,3.3,3.4z"/>
	</g>
	<g>
		<path fill="#FFFFFF" d="M2.3,3.3C2.1,3.3,2,3.2,2,3.1C1.9,2.4,2.1,1.8,2.5,1.2c0.4-0.5,1-0.9,1.7-0.9c0.1,0,0.3,0.1,0.3,0.2
			c0,0.1-0.1,0.3-0.2,0.3c-0.5,0.1-1,0.3-1.3,0.8C2.6,2,2.5,2.5,2.5,3C2.5,3.2,2.4,3.3,2.3,3.3C2.3,3.3,2.3,3.3,2.3,3.3z"/>
	</g>
	<g>
		<path fill="#FFFFFF" d="M5.5,16.8L5.5,16.8c-2.6,0-4.7-1.7-5.3-4.2C-0.5,10,0.8,6.8,3.6,6.2l4.4-1c0.1,0,0.3,0,0.4,0
			c0.8,0,1.4,0.5,1.6,1.3c0.1,0.4,0,0.9-0.2,1.3C9.6,8,9.3,8.3,8.8,8.4L6.2,9l1.7,7.3c0,0,0,0.1,0,0.1c0,0,0,0-0.1,0.1l-1,0.2
			C6.3,16.8,5.9,16.8,5.5,16.8z M8.4,5.3c-0.1,0-0.2,0-0.3,0l-4.4,1C1,7-0.2,10.1,0.4,12.6c0.6,2.4,2.7,4,5.1,4l0,0
			c0.4,0,0.8,0,1.2-0.1l0.9-0.2L5.9,8.9c0-0.1,0-0.1,0.1-0.2l2.8-0.7C9.1,8,9.4,7.8,9.6,7.5c0.2-0.3,0.3-0.7,0.2-1.1
			C9.7,5.8,9.1,5.3,8.4,5.3z"/>
	</g>
	<g>
		<g>
			<path fill="#FFFFFF" d="M12.7,6c-0.4,0-0.8-0.3-0.9-0.7c-0.1-0.2,0-0.5,0.1-0.7s0.3-0.4,0.6-0.4l1.2-0.3c0.5-0.1,1,0.2,1.1,0.7
				c0.1,0.2,0,0.5-0.1,0.7c-0.1,0.2-0.3,0.4-0.6,0.4L12.9,6C12.9,6,12.8,6,12.7,6z M13.9,4.1c-0.1,0-0.1,0-0.2,0l-1.2,0.3
				c-0.2,0-0.3,0.2-0.4,0.3S12,5.1,12,5.3c0.1,0.4,0.5,0.6,0.8,0.5l1.2-0.3c0.2,0,0.3-0.2,0.4-0.3s0.1-0.3,0.1-0.5
				C14.5,4.3,14.2,4.1,13.9,4.1z"/>
		</g>
		<g>
			<path fill="#FFFFFF" d="M13.3,8.6c-0.4,0-0.8-0.3-0.9-0.7c-0.1-0.2,0-0.5,0.1-0.7c0.1-0.2,0.3-0.4,0.6-0.4l1.2-0.3
				c0.5-0.1,1,0.2,1.1,0.7c0.1,0.5-0.2,1-0.7,1.1l-1.2,0.3C13.5,8.6,13.4,8.6,13.3,8.6z M14.5,6.6c-0.1,0-0.1,0-0.2,0l-1.2,0.3
				c-0.2,0-0.3,0.2-0.4,0.3c-0.1,0.2-0.1,0.3-0.1,0.5c0.1,0.4,0.5,0.6,0.8,0.5L14.7,8c0.4-0.1,0.6-0.5,0.5-0.8
				C15.1,6.9,14.8,6.6,14.5,6.6z"/>
		</g>
		<g>
			<path fill="#FFFFFF" d="M13.9,11.1c-0.4,0-0.8-0.3-0.9-0.7c-0.1-0.5,0.2-1,0.7-1.1l1.2-0.3c0.5-0.1,1,0.2,1.1,0.7
				c0.1,0.5-0.2,1-0.7,1.1l-1.2,0.3C14.1,11.1,14,11.1,13.9,11.1z M15.1,9.2c-0.1,0-0.1,0-0.2,0l-1.2,0.3c-0.4,0.1-0.6,0.5-0.5,0.8
				c0.1,0.4,0.5,0.6,0.8,0.5l1.2-0.3c0.4-0.1,0.6-0.5,0.5-0.8C15.7,9.4,15.4,9.2,15.1,9.2z"/>
		</g>
		<g>
			<path fill="#FFFFFF" d="M14.5,13.6c-0.4,0-0.8-0.3-0.9-0.7c-0.1-0.2,0-0.5,0.1-0.7c0.1-0.2,0.3-0.4,0.6-0.4l1.2-0.3
				c0.1,0,0.1,0,0.2,0c0.4,0,0.8,0.3,0.9,0.7c0.1,0.2,0,0.5-0.1,0.7c-0.1,0.2-0.3,0.4-0.6,0.4l-1.2,0.3
				C14.6,13.6,14.6,13.6,14.5,13.6z M15.7,11.7c-0.1,0-0.1,0-0.2,0L14.3,12c-0.2,0-0.3,0.2-0.4,0.3s-0.1,0.3-0.1,0.5
				c0.1,0.4,0.5,0.6,0.8,0.5l1.2-0.3c0.2,0,0.3-0.2,0.4-0.3s0.1-0.3,0.1-0.5C16.3,11.9,16,11.7,15.7,11.7z"/>
		</g>
	</g>
</g>
	</symbol>
	<symbol id="navIcon1">
		<g>
	<g>
		<g>
			<path fill="#FFFFFF" d="M23.7,12.8h-3.9c0,0-0.1,0-0.1,0c0,0-0.3-0.2-0.4-0.7c-0.1-0.5-0.2-1.5,0.4-2.2c-0.4-0.3-0.2-1.2-0.2-1.3
				c0-0.1,0.1-0.1,0.1-0.1c0.1,0,0.1,0.1,0.1,0.1C20,8.8,20.3,9,21,9.3c0.5-0.1,1.1-0.1,1.6,0c0.7-0.3,1.1-0.5,1.1-0.6
				c0-0.1,0.1-0.1,0.1-0.1c0.1,0,0.1,0,0.1,0.1c0,0.1,0.2,1-0.2,1.3c0.6,0.7,0.6,1.7,0.4,2.2C24.1,12.5,23.8,12.8,23.7,12.8
				C23.8,12.8,23.8,12.8,23.7,12.8z M19.9,12.6h3.7c0.1-0.1,0.2-0.2,0.3-0.5c0.1-0.5,0.1-1.5-0.5-2.1c0,0,0-0.1,0-0.2
				c0,0,0.1-0.1,0.1-0.1c0.2-0.1,0.2-0.5,0.2-0.8c-0.2,0.2-0.7,0.4-1.1,0.6c0,0,0,0-0.1,0c-0.5-0.1-1.1-0.1-1.5,0c0,0-0.1,0-0.1,0
				c-0.4-0.1-0.8-0.3-1.1-0.6c0,0.3,0,0.7,0.2,0.8c0,0,0.1,0,0.1,0.1c0,0,0,0.1,0,0.2c-0.6,0.6-0.6,1.6-0.5,2.1
				C19.7,12.3,19.9,12.5,19.9,12.6z"/>
		</g>
	</g>
	<g>
		<g>
			<path fill="#FFFFFF" d="M16.6,12.8H9.8c-0.1,0-0.1-0.1-0.1-0.1v-2.4c0-0.1,0.1-0.1,0.1-0.1h6.8c0.1,0,0.1,0.1,0.1,0.1v2.4
				C16.8,12.8,16.7,12.8,16.6,12.8z M9.9,12.6h6.6v-2.2H9.9V12.6z"/>
		</g>
		<g>
			<path fill="#FFFFFF" d="M12.6,16.7H9.8c-0.1,0-0.1-0.1-0.1-0.1v-1c0-0.1,0.1-0.1,0.1-0.1h2.8c0.1,0,0.1,0.1,0.1,0.1v1
				C12.8,16.6,12.7,16.7,12.6,16.7z M9.9,16.4h2.6v-0.7H9.9V16.4z"/>
		</g>
		<g>
			<path fill="#FFFFFF" d="M16.6,16.7h-2.8c-0.1,0-0.1-0.1-0.1-0.1v-1c0-0.1,0.1-0.1,0.1-0.1h2.8c0.1,0,0.1,0.1,0.1,0.1v1
				C16.8,16.6,16.7,16.7,16.6,16.7z M13.9,16.4h2.6v-0.7h-2.6V16.4z"/>
		</g>
		<g>
			<path fill="#FFFFFF" d="M20.6,16.7h-2.8c-0.1,0-0.1-0.1-0.1-0.1v-1c0-0.1,0.1-0.1,0.1-0.1h2.8c0.1,0,0.1,0.1,0.1,0.1v1
				C20.8,16.6,20.7,16.7,20.6,16.7z M17.9,16.4h2.6v-0.7h-2.6V16.4z"/>
		</g>
		<g>
			<path fill="#FFFFFF" d="M24.6,16.7h-2.8c-0.1,0-0.1-0.1-0.1-0.1v-1c0-0.1,0.1-0.1,0.1-0.1h2.8c0.1,0,0.1,0.1,0.1,0.1v1
				C24.8,16.6,24.7,16.7,24.6,16.7z M21.9,16.4h2.6v-0.7h-2.6V16.4z"/>
		</g>
	</g>
	<g>
		<g>
			<path fill="#FFFFFF" d="M6,18.4C6,18.4,6,18.4,6,18.4c-1.1-0.1-2.1-0.7-2.6-1.7L0.3,9.9c-0.7-1.5,0-3.2,1.4-3.9l12.4-5.7
				c0.7-0.3,1.5-0.4,2.3-0.1C17.1,0.5,17.7,1,18,1.7l1.3,2.9c0,0.1,0,0.1-0.1,0.2c-0.1,0-0.1,0-0.2-0.1l-1.3-2.9
				c-0.6-1.4-2.2-2-3.6-1.3L1.8,6.2C0.5,6.8-0.1,8.5,0.5,9.8l3.1,6.8C4.1,17.5,5,18.1,6,18.2c0.1,0,0.1,0.1,0.1,0.1
				C6.1,18.4,6,18.4,6,18.4z"/>
		</g>
	</g>
	<g>
		<g>
			<path fill="#FFFFFF" d="M3.5,11.4C3.5,11.4,3.5,11.4,3.5,11.4c-0.1,0-0.1,0-0.1-0.1l-1-2.2c0,0,0-0.1,0-0.1S2.4,9,2.4,9l4-1.8
				c0,0,0.1,0,0.1,0c0,0,0.1,0.1,0.1,0.1v2.5c0,0,0,0.1-0.1,0.1L3.5,11.4C3.6,11.4,3.5,11.4,3.5,11.4z M2.7,9.2l0.9,2l2.8-1.4V7.5
				L2.7,9.2z"/>
		</g>
		<g>
			<path fill="#FFFFFF" d="M5.5,15.7c0,0-0.1,0-0.1-0.1L5,14.7c0-0.1,0-0.1,0.1-0.2l1.5-0.7c0,0,0.1,0,0.1,0c0,0,0.1,0.1,0.1,0.1
				v1.1c0,0,0,0.1-0.1,0.1L5.5,15.7C5.5,15.7,5.5,15.7,5.5,15.7z M5.2,14.7l0.3,0.6L6.4,15v-0.8L5.2,14.7z"/>
		</g>
	</g>
	<g>
		<g>
			<path fill="#FFFFFF" d="M24,19.7H10.4c-1.6,0-3-1.3-3-3V9.3c0-1.6,1.3-3,3-3H24c1.6,0,3,1.3,3,3v7.5C27,18.4,25.7,19.7,24,19.7z
				 M10.4,6.6c-1.5,0-2.7,1.2-2.7,2.7v7.5c0,1.5,1.2,2.7,2.7,2.7H24c1.5,0,2.7-1.2,2.7-2.7V9.3c0-1.5-1.2-2.7-2.7-2.7H10.4z"/>
		</g>
	</g>
	<g>
		<path fill="#FFFFFF" d="M17.8,5.3C17.8,5.3,17.8,5.3,17.8,5.3h-6.6c-0.1,0-0.1,0-0.1-0.1c0-0.1,0-0.1,0.1-0.1l5.4-2.3
			c0.1,0,0.1,0,0.2,0.1l1.2,2.3c0,0,0,0.1,0,0.1C17.9,5.2,17.9,5.3,17.8,5.3z M11.8,5h5.8l-1-2L11.8,5z"/>
	</g>
</g>
	</symbol>
	<!-- 关闭按钮 -->
	<symbol id="arr">
		<g>
			<g>
				<circle fill="#f15c24" cx="21.4" cy="21.4" r="21.4"/>
			</g>
			<g>
				<g>
					<path fill="#fff" d="M30.2,21.4c0,0.4-0.2,0.9-0.5,1.2L19.4,32.9c-0.7,0.7-1.8,0.7-2.4,0c-0.7-0.7-0.7-1.8,0-2.4l9.1-9.1
						l-9.1-9.1c-0.7-0.7-0.7-1.8,0-2.4c0.7-0.7,1.8-0.7,2.4,0l10.3,10.3C30,20.5,30.2,20.9,30.2,21.4z"/>
				</g>
			</g>
		</g>
	</symbol>
	<symbol id="white">
		<g>
			<g>
				<circle fill="#FFFFFF" cx="21.4" cy="21.4" r="21.4"/>
			</g>
			<g>
				<g>
					<path fill="#f15c24" d="M30.2,21.4c0,0.4-0.2,0.9-0.5,1.2L19.4,32.9c-0.7,0.7-1.8,0.7-2.4,0c-0.7-0.7-0.7-1.8,0-2.4l9.1-9.1
						l-9.1-9.1c-0.7-0.7-0.7-1.8,0-2.4c0.7-0.7,1.8-0.7,2.4,0l10.3,10.3C30,20.5,30.2,20.9,30.2,21.4z"/>
				</g>
			</g>
		</g>
	</symbol>
	<symbol id="close">
		<g>
	<g>
		<circle fill="#f15c24" cx="21.4" cy="21.4" r="21.4"/>
	</g>
	<g>
		<g>
			<g>
				<path fill="#fff" d="M21.4,23.2c-0.4,0-0.8-0.2-1.1-0.5l-9.6-9.6c-0.6-0.6-0.6-1.6,0-2.3c0.6-0.6,1.6-0.6,2.3,0l8.5,8.5
					l8.5-8.5c0.6-0.6,1.6-0.6,2.3,0c0.6,0.6,0.6,1.6,0,2.3l-9.6,9.6C22.2,23,21.8,23.2,21.4,23.2z"/>
			</g>
		</g>
		<g>
			<g>
				<path fill="#fff" d="M21.4,19.6c0.4,0,0.8,0.2,1.1,0.5l9.6,9.6c0.6,0.6,0.6,1.6,0,2.3c-0.6,0.6-1.6,0.6-2.3,0l-8.5-8.5
					l-8.5,8.5c-0.6,0.6-1.6,0.6-2.3,0c-0.6-0.6-0.6-1.6,0-2.3l9.6-9.6C20.6,19.8,21,19.6,21.4,19.6z"/>
			</g>
		</g>
	</g>
</g>
	</symbol>
</svg>